<mxfile host="Electron" agent="Mozilla/5.0 (Windows NT 10.0; Win64; x64) AppleWebKit/537.36 (KHTML, like Gecko) draw.io/27.0.9 Chrome/134.0.6998.205 Electron/35.4.0 Safari/537.36" version="27.0.9">
  <diagram name="Page-1" id="IaMqULemEapbVnaxmdo2">
    <mxGraphModel dx="1405" dy="1582" grid="1" gridSize="10" guides="1" tooltips="1" connect="1" arrows="1" fold="1" page="1" pageScale="1" pageWidth="827" pageHeight="1169" math="0" shadow="0">
      <root>
        <mxCell id="0" />
        <mxCell id="1" parent="0" />
        <mxCell id="r1paUzvNtGyu7lP1f1zn-6" value="" style="edgeStyle=orthogonalEdgeStyle;rounded=0;orthogonalLoop=1;jettySize=auto;html=1;" parent="1" source="r1paUzvNtGyu7lP1f1zn-2" target="r1paUzvNtGyu7lP1f1zn-5" edge="1">
          <mxGeometry relative="1" as="geometry" />
        </mxCell>
        <mxCell id="r1paUzvNtGyu7lP1f1zn-2" value="&lt;font style=&quot;font-size: 20px;&quot;&gt;Start&lt;/font&gt;" style="ellipse;whiteSpace=wrap;html=1;fillColor=light-dark(#A20025,#00FF00);fontColor=#ffffff;strokeColor=#6F0000;fillStyle=auto;" parent="1" vertex="1">
          <mxGeometry x="560" y="-40" width="120" height="80" as="geometry" />
        </mxCell>
        <mxCell id="r1paUzvNtGyu7lP1f1zn-3" value="End" style="ellipse;whiteSpace=wrap;html=1;fillColor=#FF0000;" parent="1" vertex="1">
          <mxGeometry x="560" y="340" width="120" height="80" as="geometry" />
        </mxCell>
        <mxCell id="r1paUzvNtGyu7lP1f1zn-8" value="" style="edgeStyle=orthogonalEdgeStyle;rounded=0;orthogonalLoop=1;jettySize=auto;html=1;" parent="1" source="r1paUzvNtGyu7lP1f1zn-4" target="r1paUzvNtGyu7lP1f1zn-3" edge="1">
          <mxGeometry relative="1" as="geometry" />
        </mxCell>
        <mxCell id="r1paUzvNtGyu7lP1f1zn-4" value="Print: use Name" style="shape=parallelogram;perimeter=parallelogramPerimeter;whiteSpace=wrap;html=1;fixedSize=1;fillColor=#007FFF;" parent="1" vertex="1">
          <mxGeometry x="560" y="210" width="120" height="60" as="geometry" />
        </mxCell>
        <mxCell id="r1paUzvNtGyu7lP1f1zn-7" value="" style="edgeStyle=orthogonalEdgeStyle;rounded=0;orthogonalLoop=1;jettySize=auto;html=1;" parent="1" source="r1paUzvNtGyu7lP1f1zn-5" target="r1paUzvNtGyu7lP1f1zn-4" edge="1">
          <mxGeometry relative="1" as="geometry" />
        </mxCell>
        <mxCell id="r1paUzvNtGyu7lP1f1zn-5" value="&lt;font size=&quot;1&quot;&gt;Read: use Name&lt;/font&gt;" style="shape=parallelogram;perimeter=parallelogramPerimeter;whiteSpace=wrap;html=1;fixedSize=1;fillColor=#B266FF;" parent="1" vertex="1">
          <mxGeometry x="560" y="100" width="120" height="60" as="geometry" />
        </mxCell>
        <mxCell id="NAjNZYuyMdLMcnPgpdKb-1" value="&lt;span style=&quot;font-size: 21px;&quot;&gt;#2&lt;/span&gt;&lt;div&gt;&lt;span style=&quot;font-size: 21px;&quot;&gt;This flowchart for a program that asks&amp;nbsp;&lt;/span&gt;&lt;span style=&quot;font-size: 21px; background-color: transparent; color: light-dark(rgb(0, 0, 0), rgb(255, 255, 255));&quot;&gt;the&lt;/span&gt;&lt;/div&gt;&lt;div&gt;&lt;span style=&quot;font-size: 21px; background-color: transparent; color: light-dark(rgb(0, 0, 0), rgb(255, 255, 255));&quot;&gt;&amp;nbsp;user to enter their name, than prints&amp;nbsp;&lt;/span&gt;&lt;span style=&quot;font-size: 21px; background-color: transparent; color: light-dark(rgb(0, 0, 0), rgb(255, 255, 255));&quot;&gt;their&amp;nbsp;&lt;/span&gt;&lt;span style=&quot;background-color: transparent; color: light-dark(rgb(0, 0, 0), rgb(255, 255, 255)); font-size: 21px;&quot;&gt;name&amp;nbsp;&lt;/span&gt;&lt;/div&gt;&lt;div&gt;&lt;span style=&quot;background-color: transparent; color: light-dark(rgb(0, 0, 0), rgb(255, 255, 255)); font-size: 21px;&quot;&gt;on screen.&amp;nbsp;&lt;/span&gt;&lt;/div&gt;&lt;div style=&quot;text-align: left;&quot;&gt;&lt;span style=&quot;font-size: 21px;&quot;&gt;&lt;br&gt;&lt;/span&gt;&lt;/div&gt;" style="text;html=1;align=center;verticalAlign=middle;resizable=0;points=[];autosize=1;strokeColor=none;fillColor=none;fontSize=16;" parent="1" vertex="1">
          <mxGeometry x="-1" y="-24" width="470" height="140" as="geometry" />
        </mxCell>
      </root>
    </mxGraphModel>
  </diagram>
</mxfile>
